# xmcd CD database file
#
# Track frame offsets:
#	150
#	16377
#	37987
#	51982
#	74385
#	81095
#	96652
#	108985
#	120425
#	139067
#	154835
#	167797
#	182065
#	201350
#
# Disc length: 2877 seconds
#
# Revision: 0
# Processed by: cddbd v1.4PL0 Copyright (c) Steve Scherf et al.
# Submitted via: CDex 1.40Beta9
#
DISCID=c20b3b0e
DTITLE=Mike Milligan - When I Get There
DYEAR=2001
DGENRE=Blues
TTITLE0=On The Day
TTITLE1=Good Days To Come
TTITLE2=SNI Blues
TTITLE3=Make It Better
TTITLE4=Blue Plate Special
TTITLE5=What Goes Around
TTITLE6=When I Get There
TTITLE7=Jelly Bean Jump
TTITLE8=Big Black Cadillac
TTITLE9=Like Father Like Son
TTITLE10=You Were There
TTITLE11=In Our Lives
TTITLE12=When The Time Comes
TTITLE13=Freeze Pop
EXTD=YEAR: 2001 ID3G: 0
EXTT0=
EXTT1=
EXTT2=
EXTT3=
EXTT4=
EXTT5=
EXTT6=
EXTT7=
EXTT8=
EXTT9=
EXTT10=
EXTT11=
EXTT12=
EXTT13=
PLAYORDER=
